<svg xmlns="http://www.w3.org/2000/svg" width="36" height="37" viewBox="0 0 36 37">
  <g id="Group_441" data-name="Group 441" transform="translate(-1520 -35)">
    <rect id="grayscale-photo-of-man-2659177" width="36" height="36" rx="18" transform="translate(1520 36)" fill="#f6f6f6"/>
    <g id="Ellipse_50" data-name="Ellipse 50" transform="translate(1544 35)" fill="#ff5252" stroke="#fff" stroke-width="0.5">
      <circle cx="5.5" cy="5.5" r="5.5" stroke="none"/>
      <circle cx="5.5" cy="5.5" r="5.25" fill="none"/>
    </g>
    <g id="user" transform="translate(1530.26 44.723)">
      <path id="Path_5633" data-name="Path 5633" d="M91.5,8.938a4.324,4.324,0,0,0,3.16-1.309,4.324,4.324,0,0,0,1.309-3.16,4.325,4.325,0,0,0-1.309-3.16,4.468,4.468,0,0,0-6.319,0,4.324,4.324,0,0,0-1.309,3.16,4.324,4.324,0,0,0,1.309,3.16A4.325,4.325,0,0,0,91.5,8.938Zm0,0" transform="translate(-83.877 0)" fill="#305cad"/>
      <path id="Path_5634" data-name="Path 5634" d="M15.442,252.621a11.038,11.038,0,0,0-.15-1.172A9.237,9.237,0,0,0,15,250.27a5.823,5.823,0,0,0-.485-1.1,4.148,4.148,0,0,0-.731-.952,3.221,3.221,0,0,0-1.05-.66,3.628,3.628,0,0,0-1.34-.242,1.36,1.36,0,0,0-.726.308c-.218.142-.472.306-.757.488a4.336,4.336,0,0,1-.979.431,3.8,3.8,0,0,1-2.395,0,4.325,4.325,0,0,1-.978-.431c-.282-.18-.536-.344-.757-.488a1.358,1.358,0,0,0-.726-.308,3.623,3.623,0,0,0-1.34.243,3.219,3.219,0,0,0-1.05.66,4.149,4.149,0,0,0-.73.952,5.834,5.834,0,0,0-.485,1.1,9.259,9.259,0,0,0-.288,1.179,11,11,0,0,0-.15,1.173c-.025.355-.037.723-.037,1.1a3.081,3.081,0,0,0,.915,2.331,3.294,3.294,0,0,0,2.358.86h8.934a3.293,3.293,0,0,0,2.358-.86,3.079,3.079,0,0,0,.915-2.331C15.48,253.343,15.467,252.975,15.442,252.621Zm0,0" transform="translate(0 -238.354)" fill="#305cad"/>
    </g>
  </g>
</svg>
